# xmcd
#
# Track frame offsets: 
#        150
#        18802
#        48112
#        77840
#
# Disc length: 1447 seconds
#
# Revision: 3
# Processed by: cddbd v1.5.2PL0 Copyright (c) Steve Scherf et al.
# Submitted via: ExactAudioCopy v1.0b1
#
DISCID=1f05a504
DTITLE=Alabama 3 - "Woke Up This Morning" [cd-s]
DYEAR=1997
DGENRE=Country
TTITLE0=Woke Up This Morning [chosen one mix]
TTITLE1=Converted [last supper mix]
TTITLE2=Woke Up This Morning [Drillaz in the church mix]
TTITLE3=Woke Up This Morning [Volume mix]
EXTD=
EXTT0=
EXTT1=
EXTT2=
EXTT3=
PLAYORDER=
